<?xml version="1.0" standalone="no"?>
<!DOCTYPE svg PUBLIC "-//W3C//DTD SVG 20010904//EN"
 "http://www.w3.org/TR/2001/REC-SVG-20010904/DTD/svg10.dtd">
<svg version="1.0" xmlns="http://www.w3.org/2000/svg"
 width="260.000000pt" height="260.000000pt" viewBox="0 0 260.000000 260.000000"
 preserveAspectRatio="xMidYMid meet">
<metadata>
Created by potrace 1.11, written by Peter Selinger 2001-2013
</metadata>
<g transform="translate(0.000000,260.000000) scale(0.100000,-0.100000)"
fill="#000000" stroke="none">
<path d="M1180 2589 c-791 -74 -1330 -837 -1135 -1605 187 -736 955 -1153
1670 -907 347 120 633 389 771 726 282 694 -69 1478 -771 1720 -170 58 -365
83 -535 66z m-222 -834 c106 -32 172 -126 172 -246 0 -119 -45 -200 -137 -246
-56 -27 -63 -28 -245 -31 l-188 -4 0 -184 0 -184 -60 0 -60 0 0 455 0 455 233
0 c181 0 245 -3 285 -15z m633 -355 c63 -201 118 -371 120 -378 2 -7 58 157
125 365 l120 378 97 3 97 3 0 -456 0 -455 -60 0 -60 0 -1 373 -1 372 -55 -170
c-30 -93 -84 -261 -119 -373 l-65 -203 -76 3 -76 3 -116 369 -116 368 -3 -371
-2 -371 -60 0 -60 0 0 455 0 456 97 -3 98 -3 116 -365z"/>
<path d="M560 1499 l0 -162 163 5 c141 4 167 7 204 26 64 33 91 100 72 176
-23 94 -82 116 -311 116 l-128 0 0 -161z"/>
</g>
</svg>
